PathFileType	4	(X/Y/Z)	/Users/itak/Documents/Research/Walk-IL/dataset/trc/00010_00004.trc
DataRate	CameraRate	NumFrames	NumMarkers	Units	OrigDataRate	OrigDataStartFrame	OrigNumFrames
100.000000	100.000000	4	53	mm	100.000000	546	624
Frame#	Time	RPSI			LPSI			L3			STRN			T10			C7			CLAV			RBAK			LBAK			LSHO			LUPA			LAEL			LAOL			LWTS			LWPS			LFRA			LHPS			LHTS			RSHO			RUPA			RAEL			RAOL			RWTS			RWPS			RFRA			RIFD			RHTS			RHPS			RBHD			LFHD			RFHD			LBHD			LHIP			RHIP			RASI			LASI			LKNE			LTHI			LANK			LTIP			LTOE			LMT1			LMT5			LHEE			RKNE			RTHI			RANK			RTIP			RTOE			RMT1			RMT5			RHEE			LIFD			
		X1	Y1	Z1	X2	Y2	Z2	X3	Y3	Z3	X4	Y4	Z4	X5	Y5	Z5	X6	Y6	Z6	X7	Y7	Z7	X8	Y8	Z8	X9	Y9	Z9	X10	Y10	Z10	X11	Y11	Z11	X12	Y12	Z12	X13	Y13	Z13	X14	Y14	Z14	X15	Y15	Z15	X16	Y16	Z16	X17	Y17	Z17	X18	Y18	Z18	X19	Y19	Z19	X20	Y20	Z20	X21	Y21	Z21	X22	Y22	Z22	X23	Y23	Z23	X24	Y24	Z24	X25	Y25	Z25	X26	Y26	Z26	X27	Y27	Z27	X28	Y28	Z28	X29	Y29	Z29	X30	Y30	Z30	X31	Y31	Z31	X32	Y32	Z32	X33	Y33	Z33	X34	Y34	Z34	X35	Y35	Z35	X36	Y36	Z36	X37	Y37	Z37	X38	Y38	Z38	X39	Y39	Z39	X40	Y40	Z40	X41	Y41	Z41	X42	Y42	Z42	X43	Y43	Z43	X44	Y44	Z44	X45	Y45	Z45	X46	Y46	Z46	X47	Y47	Z47	X48	Y48	Z48	X49	Y49	Z49	X50	Y50	Z50	X51	Y51	Z51	X52	Y52	Z52	X53	Y53	Z53	

547	5.46	-1048.264892578125	1070.287719726562	-150.2321166992188	-1067.030883789062	1067.567749023438	-312.7645874023438	-1061.0517578125	1131.964111328125	-239.1652069091797	-831.9642333984375	1320.27099609375	-251.5760650634766	-1081.539184570312	1279.126708984375	-240.6428070068359	-1029.146362304688	1545.998291015625	-249.3239135742188	-873.2476806640625	1446.701782226562	-252.5535583496094	-1081.450805664062	1408.51953125	-168.5331726074219	-1052.802001953125	1504.564453125	-345.4121704101562	-955.2424926757812	1509.781860351562	-425.5555419921875	-997.1741943359375	1388.345336914062	-502.7332763671875	-1015.551879882812	1172.927856445312	-530.8750610351562	-1064.738403320312	1161.549438476562	-437.8488464355469	-930.5921020507812	917.8865356445312	-485.9954528808594	-1010.020812988281	905.5636596679688	-522.348388671875	-1007.1220703125	1056.79296875	-539.865966796875	-978.2503051757812	815.9682006835938	-525.9800415039062	-911.0357055664062	824.922607421875	-503.1661682128906	-945.9110717773438	1526.33056640625	-79.06554412841797	-961.3316650390625	1454.969604492188	-6.244968414306641	-1015.133666992188	1192.107788085938	20.01902389526367	-1018.124755859375	1161.620727539062	-75.93172454833984	-926.4912109375	915.462646484375	5.924382209777832	-996.2802124023438	917.0367431640625	67.65003967285156	-1011.434326171875	1118.124145507812	38.44457626342773	-944.1512451171875	726.6492919921875	7.564453125	-917.6487426757812	801.7015991210938	29.43936157226562	-975.1820678710938	812.2755737304688	75.84463500976562	-913.1795043945312	1726.43896484375	-173.9896240234375	-747.76806640625	1686.684814453125	-299.7676391601562	-744.2548217773438	1687.772338867188	-201.412353515625	-923.8422241210938	1731.39697265625	-318.3002014160156	-982.6763305664062	967.6807861328125	-431.7809143066406	-927.254638671875	960.7350463867188	-60.18365859985352	-831.6429443359375	991.0277709960938	-144.0748596191406	-860.9125366210938	1010.950561523438	-378.1781616210938	-934.0338745117188	520.8722534179688	-398.4110717773438	-959.9617309570312	659.3384399414062	-429.9795227050781	-1025.106811523438	41.94218444824219	-412.6269226074219	-1011.368957519531	291.3230895996094	-422.7304077148438	-806.8190307617188	40.51945877075195	-342.4627685546875	-867.3184814453125	49.52130508422852	-326.0464172363281	-900.2457885742188	40.27699279785156	-427.3400573730469	-1095.882690429688	47.85586166381836	-360.9382019042969	-933.0951538085938	524.8941650390625	-119.645149230957	-907.99609375	792.2587890625	-68.54526519775391	-1050.649169921875	44.66650772094727	-154.5632781982422	-960.7178344726562	401.7060241699219	-122.2383651733398	-818.1671752929688	45.68025970458984	-194.7354888916016	-880.873291015625	50.45634460449219	-225.1704406738281	-900.3358764648438	44.4002685546875	-130.4377136230469	-1105.955444335938	45.75056457519531	-199.9910888671875	-904.0081176757812	732.6050415039062	-474.4250183105469	
548	5.47	-1048.55859375	1070.294799804688	-151.0931091308594	-1067.005004882812	1067.434814453125	-313.6708679199219	-1061.127197265625	1131.753295898438	-240.1268615722656	-832.5519409179688	1320.5078125	-251.9976806640625	-1082.026245117188	1278.769165039062	-241.7747650146484	-1030.23193359375	1545.789428710938	-250.4030456542969	-873.9496459960938	1446.873291015625	-253.1571044921875	-1082.353393554688	1408.176879882812	-169.7548675537109	-1053.393188476562	1504.285034179688	-346.6148986816406	-955.5285034179688	1509.807861328125	-426.3895874023438	-996.680908203125	1388.210815429688	-503.7460021972656	-1014.079040527344	1172.667724609375	-531.91015625	-1063.645141601562	1161.134521484375	-439.1133728027344	-928.5089721679688	917.8766479492188	-486.5686645507812	-1007.731018066406	905.3291625976562	-523.3018188476562	-1005.201354980469	1056.5576171875	-540.8276977539062	-975.7310180664062	815.8218994140625	-526.7594604492188	-908.640380859375	824.9346313476562	-503.613037109375	-947.428466796875	1526.40283203125	-79.89931488037109	-962.7877197265625	1454.986206054688	-7.120505332946777	-1015.649536132812	1191.8876953125	18.91373252868652	-1018.241882324219	1161.400268554688	-77.07026672363281	-925.0712890625	915.8504028320312	4.847917556762695	-995.1085815429688	916.8171997070312	66.3243408203125	-1011.60693359375	1117.830810546875	37.29394912719727	-941.2776489257812	726.9083862304688	6.242265224456787	-915.3404541015625	802.1591796875	28.32567596435547	-973.3140869140625	812.1686401367188	74.58356475830078	-917.309326171875	1726.726196289062	-174.9551544189453	-750.3585205078125	1689.27880859375	-299.32861328125	-747.6524658203125	1690.510131835938	-200.9502410888672	-926.8848266601562	1731.419677734375	-319.3293151855469	-982.3548583984375	967.5546264648438	-432.4899291992188	-927.6748657226562	960.9243774414062	-60.72698974609375	-831.901611328125	991.177734375	-144.5528717041016	-860.7384033203125	1010.931640625	-378.6595764160156	-934.0735473632812	520.7339477539062	-398.7377014160156	-959.7679443359375	659.2305297851562	-430.3788146972656	-1025.138427734375	41.89913558959961	-412.6731567382812	-1011.485412597656	291.2659606933594	-423.0202941894531	-806.8148193359375	40.51407241821289	-342.4936828613281	-867.3187255859375	49.51889038085938	-326.0514831542969	-900.2445678710938	40.25590896606445	-427.3546142578125	-1095.912841796875	47.83230209350586	-360.9833068847656	-933.2266235351562	524.9948120117188	-119.9897537231445	-908.3499755859375	792.37255859375	-69.03650665283203	-1050.619262695312	44.69385147094727	-154.5823059082031	-960.9344482421875	401.75732421875	-122.5673141479492	-818.1483764648438	45.67068481445312	-194.7346496582031	-880.876220703125	50.46289825439453	-225.1787261962891	-900.3458251953125	44.41336822509766	-130.4368286132812	-1105.893798828125	45.75139999389648	-200.0085296630859	-901.4324951171875	732.6879272460938	-474.8499145507812	
549	5.48	-1048.844970703125	1070.289794921875	-151.937744140625	-1066.962768554688	1067.29248046875	-314.5510559082031	-1061.2109375	1131.548461914062	-241.0747833251953	-833.1237182617188	1320.735595703125	-252.4248046875	-1082.490844726562	1278.422607421875	-242.8809967041016	-1031.285400390625	1545.572143554688	-251.4581909179688	-874.6429443359375	1447.029663085938	-253.7544555664062	-1083.210693359375	1407.84326171875	-170.9488220214844	-1053.955810546875	1504.010009765625	-347.799072265625	-955.8031005859375	1509.820678710938	-427.2178955078125	-996.193359375	1388.065551757812	-504.7413940429688	-1012.619140625	1172.408569335938	-532.9296875	-1062.589233398438	1160.721801757812	-440.3731079101562	-926.4122924804688	917.879150390625	-487.07763671875	-1005.465454101562	905.0902709960938	-524.2249755859375	-1003.270141601562	1056.324829101562	-541.7584228515625	-973.217529296875	815.6738891601562	-527.484130859375	-906.2747802734375	824.9483642578125	-503.9939270019531	-948.8792114257812	1526.471557617188	-80.72756195068359	-964.1617431640625	1454.993286132812	-7.987613677978516	-1016.031311035156	1191.642822265625	17.83801460266113	-1018.289367675781	1161.175659179688	-78.18619537353516	-923.4425048828125	916.2655029296875	3.697083711624146	-993.6744384765625	916.581298828125	64.97893524169922	-1011.620300292969	1117.518676757812	36.15599822998047	-938.1138305664062	727.2079467773438	4.819511890411377	-912.7589111328125	802.6465454101562	27.12140274047852	-971.1647338867188	812.07373046875	73.30938720703125	-921.40869140625	1726.960083007812	-175.9396820068359	-752.9421997070312	1691.822509765625	-298.8740844726562	-751.0664672851562	1693.189331054688	-200.4774780273438	-929.8677978515625	1731.409912109375	-320.3782348632812	-982.0406494140625	967.4224243164062	-433.1891174316406	-928.102783203125	961.1001586914062	-61.27607727050781	-832.154296875	991.3064575195312	-145.0672912597656	-860.5452880859375	1010.912170410156	-379.131103515625	-934.065185546875	520.6138916015625	-399.0518188476562	-959.4989624023438	659.1201171875	-430.7610168457031	-1025.166259765625	41.85620498657227	-412.7178039550781	-1011.560729980469	291.2031555175781	-423.3079528808594	-806.8101196289062	40.50537109375	-342.5237731933594	-867.3162841796875	49.51491165161133	-326.0569152832031	-900.24072265625	40.23165893554688	-427.3706665039062	-1095.941528320312	47.81058502197266	-361.0288391113281	-933.3679809570312	525.0950927734375	-120.3421401977539	-908.6763305664062	792.49072265625	-69.50712585449219	-1050.585327148438	44.72310638427734	-154.6049194335938	-961.1435546875	401.8129272460938	-122.9075775146484	-818.1264038085938	45.65632629394531	-194.7309722900391	-880.876220703125	50.46648788452148	-225.1867370605469	-900.3635864257812	44.42526245117188	-130.4329681396484	-1105.825927734375	45.75349426269531	-200.0279541015625	-898.8983764648438	732.773193359375	-475.1924438476562	
550	5.49	-1049.1171875	1070.268188476562	-152.7631530761719	-1066.911376953125	1067.140747070312	-315.4101867675781	-1061.307495117188	1131.345458984375	-242.0105743408203	-833.6720581054688	1320.954345703125	-252.8606414794922	-1082.9326171875	1278.086547851562	-243.9603729248047	-1032.303955078125	1545.347534179688	-252.4890594482422	-875.3300170898438	1447.169555664062	-254.3417205810547	-1084.024536132812	1407.519897460938	-172.1130981445312	-1054.491455078125	1503.738891601562	-348.9622497558594	-956.0731201171875	1509.8193359375	-428.0394592285156	-995.7276000976562	1387.907836914062	-505.7203674316406	-1011.190124511719	1172.150390625	-533.9315185546875	-1061.5771484375	1160.311645507812	-441.6200256347656	-924.3011474609375	917.8955688476562	-487.5241394042969	-1003.228332519531	904.8457641601562	-525.1160888671875	-1001.345825195312	1056.095947265625	-542.6575317382812	-970.7139282226562	815.5281982421875	-528.15869140625	-903.9407348632812	824.9757690429688	-504.3251342773438	-950.2622680664062	1526.535400390625	-81.54994964599609	-965.4573364257812	1454.9912109375	-8.844160079956055	-1016.293579101562	1191.376220703125	16.79291343688965	-1018.276794433594	1160.947021484375	-79.27330017089844	-921.6181030273438	916.711181640625	2.475522994995117	-991.9864501953125	916.333740234375	63.61843490600586	-1011.482238769531	1117.189331054688	35.03626251220703	-934.665283203125	727.5541381835938	3.305466651916504	-909.9254760742188	803.171875	25.82186126708984	-968.7452392578125	812.0086669921875	72.02593231201172	-925.4646606445312	1727.140258789062	-176.9410095214844	-755.507568359375	1694.304931640625	-298.4077758789062	-754.4844360351562	1695.796508789062	-199.9971923828125	-932.77978515625	1731.367553710938	-321.443603515625	-981.7191772460938	967.2840576171875	-433.8756408691406	-928.5228271484375	961.2540893554688	-61.82698440551758	-832.4086303710938	991.4183349609375	-145.6052551269531	-860.32470703125	1010.892883300781	-379.5918273925781	-934.0162963867188	520.5103759765625	-399.3508605957031	-959.1636352539062	659.0069580078125	-431.1203918457031	-1025.190673828125	41.81470489501953	-412.7604370117188	-1011.59423828125	291.1330871582031	-423.5886840820312	-806.804931640625	40.49315643310547	-342.5518188476562	-867.31103515625	49.50936508178711	-326.0609436035156	-900.2333374023438	40.2042121887207	-427.3865661621094	-1095.966186523438	47.78883361816406	-361.0750732421875	-933.5056762695312	525.1945190429688	-120.6995697021484	-908.9615478515625	792.6143798828125	-69.94970703125	-1050.54833984375	44.75465393066406	-154.6323547363281	-961.327392578125	401.8767700195312	-123.2535934448242	-818.1028442382812	45.63845443725586	-194.7255249023438	-880.8724975585938	50.46598434448242	-225.1944732666016	-900.3885498046875	44.43056488037109	-130.4294586181641	-1105.751953125	45.75717926025391	-200.0499572753906	-896.4349975585938	732.8426513671875	-475.4717712402344	
